Coordinates
version=1
nRows=7
nColumns=40
inDegrees=yes

Units are S.I. units (second, meters, Newtons, ...)
Angles are in degrees.

endheader
time	pelvis_tilt	pelvis_list	pelvis_rotation	pelvis_tx	pelvis_ty	pelvis_tz	hip_flexion_r	hip_adduction_r	hip_rotation_r	knee_angle_r	knee_angle_r_beta	ankle_angle_r	subtalar_angle_r	mtp_angle_r	hip_flexion_l	hip_adduction_l	hip_rotation_l	knee_angle_l	knee_angle_l_beta	ankle_angle_l	subtalar_angle_l	mtp_angle_l	lumbar_extension	lumbar_bending	lumbar_rotation	arm_flex_r	arm_add_r	arm_rot_r	elbow_flex_r	pro_sup_r	wrist_flex_r	wrist_dev_r	arm_flex_l	arm_add_l	arm_rot_l	elbow_flex_l	pro_sup_l	wrist_flex_l	wrist_dev_l
     28.44678571	     -5.56324698	     -2.41051166	     -1.55557941	      1.06399184	      0.91852009	      0.43423056	     28.75376542	     -6.28920874	    -15.45810745	     11.52386018	     11.52386018	      1.65709980	      9.39080522	     12.67036676	      0.67466847	     -4.10591124	    -14.63559482	     12.96108720	     12.96108720	     18.18828705	     -2.21413916	     -6.82096326	    -12.36088260	      1.14909067	      1.77076800	     -9.29956457	    -18.52633686	    -12.45695628	     30.95433651	     46.87934571	      0.00000000	      0.00000000	     11.75729868	    -20.86304213	     -7.99318070	     77.26422206	     47.26201401	      0.00000000	      0.00000000
     28.45857143	     -5.69319500	     -2.39716496	     -1.39569947	      1.06524512	      0.91675501	      0.43703273	     28.62963216	     -5.99836688	    -15.83571159	     11.71186746	     11.71186746	      1.55951658	      9.15846600	     12.48089527	      0.10496103	     -4.28431309	    -14.51124008	     12.87346905	     12.87346905	     18.52119893	     -2.09690528	     -6.88977656	    -12.05118676	      1.14392809	      1.65525674	     -9.97438482	    -18.39600238	    -12.48618113	     30.85184562	     46.87682583	      0.00000000	      0.00000000	     11.53172986	    -21.01506118	     -8.07940808	     77.34940354	     47.27095001	      0.00000000	      0.00000000
     28.47035714	     -5.66898910	     -2.38129786	     -1.24272547	      1.06676944	      0.91507017	      0.44005367	     28.25177868	     -5.67267249	    -15.83219117	     11.88170103	     11.88170103	     -0.19401397	      8.31219205	      7.23576603	     -0.56400844	     -4.59020732	    -14.95743851	     13.04946351	     13.04946351	     19.43589245	     -0.92511839	     -6.15278301	    -12.00514951	      1.12315330	      1.59639273	    -11.41371458	    -18.27370778	    -12.85820473	     33.15242772	     46.73757835	      0.00000000	      0.00000000	     10.83995915	    -21.09566144	     -8.34402892	     78.73232123	     47.37141607	      0.00000000	      0.00000000
     28.48214286	     -5.74350755	     -2.37188925	     -1.07653944	      1.06802806	      0.91353477	      0.44303689	     28.28818539	     -5.49157691	    -15.65979708	     12.87686431	     12.87686431	     -0.51323683	      7.29629317	      6.06089849	     -1.05138234	     -4.83881498	    -14.83110577	     13.23146375	     13.23146375	     19.80433495	     -0.81808025	     -5.99686204	    -11.80479576	      1.12030330	      1.62548380	    -11.93726115	    -18.10245510	    -12.78004867	     33.11676894	     46.71726561	      0.00000000	      0.00000000	     10.64876742	    -20.97211449	     -8.41392454	     78.68275582	     47.38804454	      0.00000000	      0.00000000
     28.49392857	     -5.72675258	     -2.52841489	     -0.83718403	      1.06941550	      0.91256090	      0.44606870	     28.00340479	     -5.19535559	    -15.79478790	     13.64695683	     13.64695683	     -0.66428062	      6.71162108	      5.63912805	     -1.59431601	     -5.28745721	    -14.60437535	     13.46709212	     13.46709212	     20.00655855	     -0.84510108	     -5.97380811	    -11.72190046	      1.33018708	      1.60490952	    -12.32233932	    -17.83678325	    -12.74239678	     33.05764079	     46.71104231	      0.00000000	      0.00000000	     10.21172435	    -20.84323544	     -8.41350342	     78.58371281	     47.38622223	      0.00000000	      0.00000000
     28.50571429	     -5.76075456	     -2.54514837	     -0.67914725	      1.07058937	      0.91122862	      0.44947113	     27.95544779	     -4.86344957	    -14.64277447	     14.51727455	     14.51727455	     -2.88034215	      3.89980658	     -1.48165052	     -1.57593750	     -5.83795533	    -14.89298221	     14.81910181	     14.81910181	     21.25404423	     -0.06360644	     -4.37517451	    -11.67301132	      1.33298333	      1.54282807	    -12.91723844	    -17.77015310	    -12.30353165	     34.56749405	     46.55314053	      0.00000000	      0.00000000	      9.65971697	    -20.59210638	     -9.10784493	     79.01825720	     47.50784477	      0.00000000	      0.00000000
     28.51750000	     -5.81250445	     -2.65088548	     -0.49194524	      1.07154289	      0.91056021	      0.45269882	     28.07520392	     -4.64756651	    -14.08317981	     15.90240275	     15.90240275	     -2.69850799	      2.45712324	     -2.09676279	     -1.57070787	     -6.35854522	    -14.55304154	     15.89012117	     15.89012117	     21.36588073	     -0.52956923	     -4.41646195	    -11.62522245	      1.47776395	      1.57312829	    -12.99441932	    -17.57680353	    -12.18857462	     34.63659355	     46.53279743	      0.00000000	      0.00000000	      9.20623066	    -20.32311714	     -9.19216775	     78.86200390	     47.51859756	      0.00000000	      0.00000000
